PathFileType	4	(X/Y/Z)	C:/Users/opensim2020/Desktop/walking_exp_matlab/subject01_walking08_straight_04.trc	
DataRate	CameraRate	NumFrames	NumMarkers	Units	OrigDataRate	OrigDataStartFrame	OrigNumFrames	
100.00	100.00	7	43	mm	100.00	3851	256	
Frame#	Time	LFHD			RFHD			LBHD			RBHD			C7			T10			CLAV			STRN			RBAK			LSHO			LUPA			LELB			LFRM			LWRA			LWRB			LFIN			RSHO			RUPA			RELB			RFRM			RWRA			RWRB			RFIN			LASI			RASI			LPSI			RPSI			LTHI			LKNE			LTIB			LANK			LHEE			LTOE			RTHI			RKNE			RTIB			RANK			RHEE			RTOE			*39			*40			*41			*42			
		X1	Y1	Z1	X2	Y2	Z2	X3	Y3	Z3	X4	Y4	Z4	X5	Y5	Z5	X6	Y6	Z6	X7	Y7	Z7	X8	Y8	Z8	X9	Y9	Z9	X10	Y10	Z10	X11	Y11	Z11	X12	Y12	Z12	X13	Y13	Z13	X14	Y14	Z14	X15	Y15	Z15	X16	Y16	Z16	X17	Y17	Z17	X18	Y18	Z18	X19	Y19	Z19	X20	Y20	Z20	X21	Y21	Z21	X22	Y22	Z22	X23	Y23	Z23	X24	Y24	Z24	X25	Y25	Z25	X26	Y26	Z26	X27	Y27	Z27	X28	Y28	Z28	X29	Y29	Z29	X30	Y30	Z30	X31	Y31	Z31	X32	Y32	Z32	X33	Y33	Z33	X34	Y34	Z34	X35	Y35	Z35	X36	Y36	Z36	X37	Y37	Z37	X38	Y38	Z38	X39	Y39	Z39	X40	Y40	Z40	X41	Y41	Z41	X42	Y42	Z42	X43	Y43	Z43	

193	1.920	1556.66809	-316.66818	1648.97681	1443.27368	-331.21341	1651.50952	1548.73999	-195.48691	1619.41870	1427.87158	-207.47011	1621.97571	1506.04541	-137.46448	1420.06763	1492.87805	-100.83661	1125.80042	1506.74329	-279.41403	1350.65222	1516.45093	-322.13928	1196.45825	1428.02820	-83.98978	1222.89526	1667.56714	-219.70824	1383.52136	1757.87524	-211.52193	1201.50110	1769.42749	-232.32915	1049.29980	1792.75171	-327.88342	982.69598	1773.28699	-461.05957	944.06128	1796.36133	-421.31735	904.82751	1808.22363	-502.08249	882.50757	1353.79175	-218.39093	1378.01697	1257.73035	-144.93114	1181.11438	1256.84460	-133.19717	1057.44849	1224.86707	-146.65268	938.23859	1238.87830	-215.30841	813.65094	1202.59705	-170.07132	819.55103	1203.19312	-198.86678	738.10626	1613.71765	-260.74628	917.27991	1397.70325	-286.18591	925.25525	1537.15710	-82.51778	930.11401	1393.65613	-100.58130	932.26056	1649.89197	-181.47153	586.68469	1630.79102	-147.98706	453.75897	1634.21106	-51.61401	289.82870	1579.62146	38.04937	90.33777	1527.64600	90.98515	71.54933	1581.24268	-98.25725	32.17502	1326.37268	-310.44830	600.34418	1355.57947	-366.81454	455.81488	1342.97607	-367.79205	281.07166	1384.83423	-414.35254	76.66302	1435.89185	-381.29764	26.97357	1384.25793	-558.34363	77.77417	1465.66638	-323.07874	1686.34924	-3101.89307	1973.17297	1023.32288	-3140.64111	2012.58691	1022.04004			 
194	1.930	1554.58154	-323.50388	1648.46875	1441.16931	-338.10699	1651.02502	1546.57092	-202.30475	1618.78430	1425.64099	-214.44676	1621.35376	1503.77722	-144.54709	1419.26648	1491.12964	-108.84694	1124.76978	1504.63110	-286.77087	1350.14172	1514.75256	-329.86917	1196.15149	1426.06018	-91.82214	1221.71094	1665.37927	-226.86154	1383.27563	1756.04797	-218.91438	1201.45374	1767.79773	-239.40881	1049.16711	1791.18530	-335.01407	982.59601	1771.82678	-468.27951	944.24414	1794.98132	-428.53897	904.88293	1806.80859	-509.32550	882.67126	1351.39087	-226.15070	1377.30249	1255.91174	-152.24014	1180.21423	1255.27612	-140.67166	1056.43420	1223.44836	-154.13972	937.16132	1237.69263	-222.80722	812.65570	1201.39978	-177.53792	818.35236	1202.19006	-206.21989	736.97906	1612.76892	-269.14792	916.80487	1396.77527	-294.85202	924.56238	1535.86267	-90.89443	929.50543	1392.33313	-109.26097	931.42554	1649.15979	-188.61221	586.27930	1630.38770	-154.24312	453.49442	1633.96509	-55.85047	290.67700	1580.11169	36.74301	92.35802	1528.36743	90.03259	74.49438	1581.27551	-98.45506	32.19021	1326.82788	-318.58676	599.45801	1355.23035	-373.86603	454.25549	1343.62354	-372.99030	279.43362	1385.98096	-416.62653	75.19714	1436.87354	-381.63843	27.09556	1385.01807	-560.61230	71.46386	1463.59644	-330.01807	1685.86072	-3101.98218	1973.10718	1023.82440	-3140.72681	2012.57336	1022.05780			 
195	1.940	1552.42664	-330.37662	1648.24316	1438.99292	-345.06656	1650.75732	1544.35266	-209.22391	1618.34595	1423.59155	-221.37369	1620.87549	1501.30115	-151.59830	1418.50208	1489.27905	-116.88644	1123.86707	1502.47534	-294.09943	1349.70239	1513.02612	-337.66916	1195.99670	1424.21375	-99.58069	1220.69128	1663.19421	-234.04550	1383.09863	1754.03906	-226.07063	1201.37769	1766.12500	-246.44637	1049.03345	1789.62170	-342.01944	982.47565	1770.27954	-475.24606	943.98053	1793.56433	-435.51901	904.78760	1805.40662	-516.34869	882.66492	1349.30359	-233.26616	1376.36902	1253.85828	-160.03555	1179.20081	1253.53442	-148.23933	1055.38696	1221.99744	-161.73923	936.09955	1236.50647	-230.28375	811.50354	1200.17126	-185.08250	817.14154	1201.15820	-214.05878	735.88666	1611.71167	-277.65616	916.28827	1395.86621	-303.35669	923.97296	1534.51245	-99.32092	928.88379	1390.74280	-117.88808	930.60718	1648.30127	-196.08199	585.79614	1629.65662	-160.75212	453.28622	1633.78894	-60.21444	291.76837	1580.82385	35.47997	94.68437	1529.20178	89.08913	77.63771	1581.37329	-98.58281	32.20806	1327.16858	-326.38284	598.95850	1354.94531	-381.02896	453.08142	1344.68445	-377.86932	278.20932	1386.56860	-419.08884	75.13536	1437.57520	-382.48779	27.88250	1384.98938	-563.05878	65.38195	1461.39819	-336.85049	1685.50415	-3101.82300	1973.12500	1023.55719	-3140.69653	2012.59692	1022.15808			 
196	1.950	1550.15967	-337.40652	1648.50647	1436.70911	-352.12097	1650.88440	1542.03406	-216.31154	1618.34558	1421.28992	-228.52068	1620.71069	1498.87634	-158.76970	1418.21265	1487.57520	-125.05729	1123.33557	1500.35168	-301.71881	1349.75647	1511.20300	-345.37152	1196.19275	1422.30603	-107.39011	1219.91345	1660.99500	-241.23427	1383.15198	1752.02454	-233.36426	1201.44092	1764.34253	-253.43597	1048.99817	1787.99988	-348.90091	982.32086	1768.70911	-482.02258	943.59418	1792.07092	-442.31543	904.51190	1803.94702	-523.02899	882.31866	1346.94458	-240.82666	1375.78455	1251.77710	-167.77707	1178.19543	1251.76892	-155.97594	1054.31787	1220.45667	-169.47902	934.96613	1235.42065	-238.20387	810.52844	1199.09778	-192.88148	816.09424	1200.06689	-222.04285	734.92926	1610.49255	-286.33066	915.78491	1394.82458	-311.79193	923.66284	1533.30859	-107.76864	928.41626	1389.19348	-126.36928	930.00128	1647.27136	-203.87527	585.32941	1628.76160	-167.96320	452.92862	1633.51270	-64.95892	292.99921	1581.58411	33.79031	97.32404	1530.29138	87.89577	81.42244	1581.21960	-98.91030	31.96778	1327.42810	-333.77597	599.04382	1354.82031	-388.55420	453.04395	1345.58008	-383.45432	277.99557	1386.55933	-422.50482	74.85524	1437.52283	-383.82465	29.13059	1384.79700	-565.70929	60.95216	1459.04968	-343.70334	1685.50195	-3101.90454	1973.04199	1023.77856	-3140.79639	2012.52954	1022.17792			 
197	1.960	1547.74988	-344.54449	1648.91565	1434.34631	-359.40396	1651.18188	1539.64880	-223.48329	1618.77527	1418.93787	-235.74988	1620.98706	1496.57556	-166.20331	1418.31165	1486.01746	-133.20526	1123.18250	1498.11865	-309.09152	1350.01294	1509.25330	-353.19614	1196.62402	1420.46436	-115.03183	1219.57178	1658.87878	-248.44049	1383.45142	1749.98889	-240.53941	1201.66016	1762.46826	-260.40060	1049.12622	1786.33301	-355.62317	982.22449	1767.08777	-488.59271	943.06750	1790.50562	-448.75153	904.12787	1802.48999	-529.35645	881.79987	1344.55957	-248.24422	1375.51868	1249.86206	-175.48158	1177.45313	1249.99280	-163.89342	1053.40967	1218.84387	-177.44099	934.12061	1234.30151	-246.13051	809.65808	1197.90771	-200.86325	814.99463	1198.88989	-230.32558	734.15833	1609.23132	-295.02298	915.49182	1393.65295	-320.26971	923.55542	1532.14331	-116.23390	928.03339	1387.77783	-134.76019	929.75391	1646.17212	-212.04169	585.04376	1627.79968	-175.56883	452.77429	1633.40247	-69.99022	294.75833	1582.07996	31.80685	100.13929	1530.91113	86.22413	85.24907	1581.28687	-99.21632	32.15428	1326.88232	-341.52753	599.62927	1354.78662	-396.21994	453.85974	1345.44470	-389.87167	278.41086	1386.10962	-425.11536	74.77985	1437.07129	-385.31622	30.14857	1384.48547	-568.06201	56.64307	1456.71179	-350.62524	1685.79053	-3101.87695	1973.20142	1023.51074	-3140.76001	2012.50208	1021.96027			 
198	1.970	1545.41174	-351.76416	1649.37903	1431.97815	-366.63937	1651.54346	1537.23999	-230.69298	1619.31677	1416.32007	-243.07329	1621.48401	1494.27039	-173.78130	1418.63574	1484.56091	-141.30849	1123.20691	1495.91565	-316.47003	1350.57629	1507.21118	-361.07507	1197.23962	1418.50024	-122.64171	1219.50757	1656.74353	-255.84619	1383.92566	1747.94543	-247.77048	1202.17480	1760.55432	-267.24554	1049.54932	1784.53284	-362.16467	982.18250	1765.45947	-494.87726	942.50507	1788.87073	-454.85068	903.66943	1801.07129	-535.22345	881.13000	1342.36157	-255.75002	1375.21423	1247.80957	-183.54143	1176.78564	1248.23450	-171.92316	1052.72266	1217.43225	-185.48489	933.32666	1233.11938	-254.47601	809.00909	1196.66003	-209.09390	814.19653	1197.79846	-238.82286	733.77655	1607.89331	-303.80231	915.36816	1392.42200	-328.75800	923.81757	1531.16321	-124.75625	927.85651	1386.76526	-142.94762	930.05267	1645.00708	-220.62454	584.90692	1626.84460	-183.63962	452.74728	1632.96460	-75.53589	296.46280	1582.44556	29.60301	103.28169	1531.32324	84.22677	89.64120	1581.22742	-99.60714	32.15182	1326.15906	-349.27255	600.37323	1354.15527	-404.04993	454.41910	1344.49573	-396.63358	279.28961	1385.38013	-427.28781	74.42586	1436.36572	-386.39969	31.02694	1384.90259	-570.08978	52.30798	1454.24500	-358.14996	1686.33459	-3101.91748	1973.11438	1023.94849	-3140.55591	2012.53149	1022.06512			 
199	1.980	1543.03906	-358.89761	1649.87231	1429.61487	-373.89227	1652.02539	1534.79224	-237.85164	1619.79871	1414.07178	-250.29579	1621.89368	1492.08594	-181.27986	1419.03687	1483.14868	-149.43536	1123.33459	1493.80835	-324.09637	1351.25696	1505.22278	-369.10138	1198.06946	1416.70911	-130.14427	1219.67847	1654.65222	-263.35635	1384.61169	1745.72144	-254.86798	1202.78931	1758.62598	-273.97839	1050.22327	1782.65845	-368.47733	982.26965	1763.76575	-500.83917	941.68854	1787.14624	-460.55945	903.10663	1799.49438	-540.74957	880.10419	1340.29504	-262.94141	1375.17603	1245.96863	-191.44571	1176.37903	1246.44006	-180.11630	1052.32434	1215.95068	-193.91808	932.72302	1231.99353	-262.67319	808.58813	1195.38025	-217.57710	813.75018	1196.53308	-247.15852	733.25732	1606.53699	-312.60281	915.36700	1391.15881	-337.13550	924.42560	1530.34412	-133.37027	928.02246	1385.95398	-151.00240	930.71783	1643.85571	-229.45819	585.01093	1626.12024	-192.16859	452.88263	1632.57507	-81.52571	298.28903	1582.83203	27.18759	106.93256	1531.60278	81.87733	94.46329	1581.44849	-99.63680	32.18013	1325.05847	-357.76846	601.25696	1353.30688	-411.55829	455.01895	1343.17041	-402.97275	279.59656	1384.60510	-429.29559	74.08558	1435.70605	-387.16986	31.79337	1385.60364	-571.54022	48.56674	1451.83020	-365.58429	1686.86121	-3101.72485	1973.23914	1023.46063	-3140.66284	2012.51526	1021.98077			 
